<mxfile host="app.diagrams.net" modified="2021-09-20T13:42:01.846Z" agent="5.0 (Windows NT 10.0; Win64; x64) AppleWebKit/537.36 (KHTML, like Gecko) Chrome/93.0.4577.82 Safari/537.36" etag="E9O54G0M1vts2xVGCK22" version="15.2.9" type="github">
  <diagram id="YrvTdJHB63aWJ06atxgT" name="Page-1">
    <mxGraphModel dx="868" dy="450" grid="1" gridSize="10" guides="1" tooltips="1" connect="1" arrows="1" fold="1" page="1" pageScale="1" pageWidth="850" pageHeight="1100" math="0" shadow="0">
      <root>
        <mxCell id="0" />
        <mxCell id="1" parent="0" />
        <mxCell id="I_slnlyROAj-Tjg3Azl2-20" value="" style="rounded=1;whiteSpace=wrap;html=1;fontSize=14;fillColor=none;arcSize=10;" parent="1" vertex="1">
          <mxGeometry x="300" y="187" width="460" height="270" as="geometry" />
        </mxCell>
        <mxCell id="I_slnlyROAj-Tjg3Azl2-1" value="&lt;font style=&quot;font-size: 27px&quot;&gt;Dell R740 ESXi&lt;/font&gt;" style="rounded=0;whiteSpace=wrap;html=1;fillColor=#f5f5f5;strokeColor=#666666;fontColor=#333333;" parent="1" vertex="1">
          <mxGeometry x="360" y="230" width="300" height="100" as="geometry" />
        </mxCell>
        <mxCell id="I_slnlyROAj-Tjg3Azl2-4" value="&lt;font style=&quot;font-size: 13px&quot;&gt;10 GbE&lt;/font&gt;" style="rounded=0;whiteSpace=wrap;html=1;fillColor=#bac8d3;strokeColor=#23445d;fontSize=15;fontStyle=1" parent="1" vertex="1">
          <mxGeometry x="385" y="325" width="255" height="30" as="geometry" />
        </mxCell>
        <mxCell id="I_slnlyROAj-Tjg3Azl2-28" style="edgeStyle=orthogonalEdgeStyle;rounded=0;orthogonalLoop=1;jettySize=auto;html=1;exitX=0.5;exitY=1;exitDx=0;exitDy=0;entryX=-0.021;entryY=0.794;entryDx=0;entryDy=0;entryPerimeter=0;dashed=1;fontSize=13;strokeWidth=1;" parent="1" source="I_slnlyROAj-Tjg3Azl2-10" target="I_slnlyROAj-Tjg3Azl2-25" edge="1">
          <mxGeometry relative="1" as="geometry" />
        </mxCell>
        <mxCell id="I_slnlyROAj-Tjg3Azl2-10" value="" style="rounded=0;whiteSpace=wrap;html=1;fillColor=#f0a30a;strokeColor=#BD7000;fontColor=#000000;align=right;" parent="1" vertex="1">
          <mxGeometry x="398.5" y="351" width="25" height="15" as="geometry" />
        </mxCell>
        <mxCell id="I_slnlyROAj-Tjg3Azl2-29" style="edgeStyle=orthogonalEdgeStyle;rounded=0;orthogonalLoop=1;jettySize=auto;html=1;exitX=0.5;exitY=1;exitDx=0;exitDy=0;entryX=0.01;entryY=0.649;entryDx=0;entryDy=0;entryPerimeter=0;dashed=1;fontSize=13;strokeWidth=1;" parent="1" source="I_slnlyROAj-Tjg3Azl2-11" target="I_slnlyROAj-Tjg3Azl2-25" edge="1">
          <mxGeometry relative="1" as="geometry" />
        </mxCell>
        <mxCell id="I_slnlyROAj-Tjg3Azl2-11" value="" style="rounded=0;whiteSpace=wrap;html=1;fillColor=#f0a30a;strokeColor=#BD7000;fontColor=#000000;" parent="1" vertex="1">
          <mxGeometry x="450" y="351" width="28" height="15" as="geometry" />
        </mxCell>
        <mxCell id="I_slnlyROAj-Tjg3Azl2-30" style="edgeStyle=orthogonalEdgeStyle;rounded=0;orthogonalLoop=1;jettySize=auto;html=1;exitX=0.5;exitY=1;exitDx=0;exitDy=0;entryX=0.019;entryY=0.351;entryDx=0;entryDy=0;entryPerimeter=0;dashed=1;fontSize=13;strokeWidth=1;" parent="1" source="I_slnlyROAj-Tjg3Azl2-12" target="I_slnlyROAj-Tjg3Azl2-25" edge="1">
          <mxGeometry relative="1" as="geometry">
            <mxPoint x="551.4292800000001" y="414.40700000000004" as="targetPoint" />
          </mxGeometry>
        </mxCell>
        <mxCell id="I_slnlyROAj-Tjg3Azl2-12" value="" style="rounded=0;whiteSpace=wrap;html=1;fillColor=#f0a30a;strokeColor=#BD7000;fontColor=#000000;" parent="1" vertex="1">
          <mxGeometry x="536" y="351" width="26" height="15" as="geometry" />
        </mxCell>
        <mxCell id="I_slnlyROAj-Tjg3Azl2-31" style="edgeStyle=orthogonalEdgeStyle;rounded=0;orthogonalLoop=1;jettySize=auto;html=1;exitX=0.5;exitY=1;exitDx=0;exitDy=0;entryX=-0.006;entryY=0.227;entryDx=0;entryDy=0;entryPerimeter=0;dashed=1;fontSize=13;strokeWidth=1;" parent="1" source="I_slnlyROAj-Tjg3Azl2-13" edge="1">
          <mxGeometry relative="1" as="geometry">
            <mxPoint x="594.6589700000001" y="413.717" as="targetPoint" />
          </mxGeometry>
        </mxCell>
        <mxCell id="I_slnlyROAj-Tjg3Azl2-13" value="" style="rounded=0;whiteSpace=wrap;html=1;fillColor=#f0a30a;strokeColor=#BD7000;fontColor=#000000;" parent="1" vertex="1">
          <mxGeometry x="592" y="351" width="24" height="15" as="geometry" />
        </mxCell>
        <mxCell id="I_slnlyROAj-Tjg3Azl2-21" value="&lt;font face=&quot;Times New Roman&quot; style=&quot;font-size: 27px&quot;&gt;Host IO&lt;/font&gt;" style="text;html=1;strokeColor=none;fillColor=none;align=center;verticalAlign=middle;whiteSpace=wrap;rounded=0;fontSize=13;" parent="1" vertex="1">
          <mxGeometry x="614" y="193" width="150" height="34" as="geometry" />
        </mxCell>
        <mxCell id="I_slnlyROAj-Tjg3Azl2-25" value="&lt;font style=&quot;font-size: 16px&quot;&gt;LAN&lt;/font&gt;" style="shape=cylinder3;whiteSpace=wrap;html=1;boundedLbl=1;backgroundOutline=1;size=1.9069767441860677;fontSize=13;fillColor=#0050ef;rotation=90;strokeColor=#001DBC;fontColor=#ffffff;horizontal=0;" parent="1" vertex="1">
          <mxGeometry x="494.93" y="283.91" width="23" height="282.89" as="geometry" />
        </mxCell>
        <mxCell id="I_slnlyROAj-Tjg3Azl2-32" value="&lt;b&gt;&lt;font style=&quot;font-size: 9px&quot;&gt;eth0&lt;/font&gt;&lt;/b&gt;" style="text;html=1;strokeColor=none;fillColor=none;align=center;verticalAlign=middle;whiteSpace=wrap;rounded=0;fontSize=13;fontStyle=0" parent="1" vertex="1">
          <mxGeometry x="398.5" y="351" width="25" height="10" as="geometry" />
        </mxCell>
        <mxCell id="I_slnlyROAj-Tjg3Azl2-33" value="&lt;font size=&quot;1&quot;&gt;&lt;b style=&quot;font-size: 9px&quot;&gt;eth1&lt;/b&gt;&lt;/font&gt;" style="text;html=1;strokeColor=none;fillColor=none;align=center;verticalAlign=middle;whiteSpace=wrap;rounded=0;fontSize=13;fontStyle=0" parent="1" vertex="1">
          <mxGeometry x="456.16999999999996" y="348.5" width="17.66" height="15" as="geometry" />
        </mxCell>
        <mxCell id="I_slnlyROAj-Tjg3Azl2-34" value="&lt;font size=&quot;1&quot;&gt;&lt;b style=&quot;font-size: 9px&quot;&gt;eth2&lt;/b&gt;&lt;/font&gt;" style="text;html=1;strokeColor=none;fillColor=none;align=center;verticalAlign=middle;whiteSpace=wrap;rounded=0;fontSize=13;fontStyle=0" parent="1" vertex="1">
          <mxGeometry x="541.5" y="351" width="15" height="10" as="geometry" />
        </mxCell>
        <mxCell id="I_slnlyROAj-Tjg3Azl2-35" value="&lt;font size=&quot;1&quot;&gt;&lt;b style=&quot;font-size: 9px&quot;&gt;eth3&lt;/b&gt;&lt;/font&gt;" style="text;html=1;strokeColor=none;fillColor=none;align=center;verticalAlign=middle;whiteSpace=wrap;rounded=0;fontSize=13;fontStyle=0" parent="1" vertex="1">
          <mxGeometry x="596.5" y="351" width="15" height="10" as="geometry" />
        </mxCell>
        <mxCell id="aePnbEscNMuFJ7ggmlQi-1" value="" style="shape=image;html=1;verticalAlign=top;verticalLabelPosition=bottom;labelBackgroundColor=#ffffff;imageAspect=0;aspect=fixed;image=https://cdn0.iconfinder.com/data/icons/fatcow/32/network_adapter.png" parent="1" vertex="1">
          <mxGeometry x="393" y="361" width="32" height="32" as="geometry" />
        </mxCell>
        <mxCell id="aePnbEscNMuFJ7ggmlQi-2" value="" style="shape=image;html=1;verticalAlign=top;verticalLabelPosition=bottom;labelBackgroundColor=#ffffff;imageAspect=0;aspect=fixed;image=https://cdn0.iconfinder.com/data/icons/fatcow/32/network_adapter.png" parent="1" vertex="1">
          <mxGeometry x="447" y="360.5" width="32" height="32" as="geometry" />
        </mxCell>
        <mxCell id="aePnbEscNMuFJ7ggmlQi-4" value="" style="shape=image;html=1;verticalAlign=top;verticalLabelPosition=bottom;labelBackgroundColor=#ffffff;imageAspect=0;aspect=fixed;image=https://cdn0.iconfinder.com/data/icons/fatcow/32/network_adapter.png" parent="1" vertex="1">
          <mxGeometry x="532" y="360.5" width="32" height="32" as="geometry" />
        </mxCell>
        <mxCell id="aePnbEscNMuFJ7ggmlQi-5" value="" style="shape=image;html=1;verticalAlign=top;verticalLabelPosition=bottom;labelBackgroundColor=#ffffff;imageAspect=0;aspect=fixed;image=https://cdn0.iconfinder.com/data/icons/fatcow/32/network_adapter.png" parent="1" vertex="1">
          <mxGeometry x="586" y="360" width="32" height="32" as="geometry" />
        </mxCell>
        <mxCell id="aePnbEscNMuFJ7ggmlQi-6" value="" style="rounded=0;whiteSpace=wrap;html=1;fillColor=#fa6800;strokeColor=#C73500;fontColor=#000000;align=right;" parent="1" vertex="1">
          <mxGeometry x="391" y="310.75" width="40" height="15" as="geometry" />
        </mxCell>
        <mxCell id="aePnbEscNMuFJ7ggmlQi-7" value="" style="rounded=0;whiteSpace=wrap;html=1;fillColor=#fa6800;strokeColor=#C73500;fontColor=#000000;" parent="1" vertex="1">
          <mxGeometry x="444" y="310.75" width="40" height="15" as="geometry" />
        </mxCell>
        <mxCell id="aePnbEscNMuFJ7ggmlQi-8" value="" style="rounded=0;whiteSpace=wrap;html=1;fillColor=#fa6800;strokeColor=#C73500;fontColor=#000000;" parent="1" vertex="1">
          <mxGeometry x="529" y="310.75" width="40" height="15" as="geometry" />
        </mxCell>
        <mxCell id="aePnbEscNMuFJ7ggmlQi-9" value="" style="rounded=0;whiteSpace=wrap;html=1;fillColor=#fa6800;strokeColor=#C73500;fontColor=#000000;" parent="1" vertex="1">
          <mxGeometry x="584" y="310.75" width="40" height="15" as="geometry" />
        </mxCell>
        <mxCell id="aePnbEscNMuFJ7ggmlQi-10" value="&lt;b&gt;&lt;font style=&quot;font-size: 9px&quot;&gt;vmnic0&lt;/font&gt;&lt;/b&gt;" style="text;html=1;strokeColor=none;fillColor=none;align=center;verticalAlign=middle;whiteSpace=wrap;rounded=0;fontSize=13;fontStyle=0" parent="1" vertex="1">
          <mxGeometry x="399" y="310.75" width="25" height="10" as="geometry" />
        </mxCell>
        <mxCell id="aePnbEscNMuFJ7ggmlQi-11" value="&lt;font size=&quot;1&quot;&gt;&lt;b style=&quot;font-size: 9px&quot;&gt;vmnic1&lt;/b&gt;&lt;/font&gt;" style="text;html=1;strokeColor=none;fillColor=none;align=center;verticalAlign=middle;whiteSpace=wrap;rounded=0;fontSize=13;fontStyle=0" parent="1" vertex="1">
          <mxGeometry x="456.16999999999996" y="308.25" width="17.66" height="15" as="geometry" />
        </mxCell>
        <mxCell id="aePnbEscNMuFJ7ggmlQi-12" value="&lt;font size=&quot;1&quot;&gt;&lt;b style=&quot;font-size: 9px&quot;&gt;vmnic2&lt;/b&gt;&lt;/font&gt;" style="text;html=1;strokeColor=none;fillColor=none;align=center;verticalAlign=middle;whiteSpace=wrap;rounded=0;fontSize=13;fontStyle=0" parent="1" vertex="1">
          <mxGeometry x="540.5" y="310.75" width="15" height="10" as="geometry" />
        </mxCell>
        <mxCell id="aePnbEscNMuFJ7ggmlQi-13" value="&lt;font size=&quot;1&quot;&gt;&lt;b style=&quot;font-size: 9px&quot;&gt;vmnic4&lt;/b&gt;&lt;/font&gt;" style="text;html=1;strokeColor=none;fillColor=none;align=center;verticalAlign=middle;whiteSpace=wrap;rounded=0;fontSize=13;fontStyle=0" parent="1" vertex="1">
          <mxGeometry x="589" y="308.75" width="30" height="14.25" as="geometry" />
        </mxCell>
      </root>
    </mxGraphModel>
  </diagram>
</mxfile>
